- 
http://www.Speed.Cd 
       
http://www.Speed.Cd       the fast  and The Hottest Private Tracker on the net

(((--Registration will be open on june every weekend--)))

Please Seed back to make the speed Faster!!!

------------------nfo--------------------------
-








































          
          
              
              
                    
                    
                    
                    

Quarantine.2.Terminal.2011.V2.VODRiP.XviD-SiC

Poster:
[img]http://leetleech.org/images/48164795859775960339.jpg[/img]

IMDB Link:
http://www.imdb.com/title/tt1699231/

Description:
A plane is taken over by a mysterious virus. When the plane lands it is
placed under quarantine. Now a group of survivors must band together to
survive the quarantine. 

General
Complete name                    : Quarantine.2.Terminal.2011.V2.VODRiP.XviD-SiC.avi
Format                           : AVI
Format/Info                      : Audio Video Interleave
File size                        : 913 MiB
Duration                         : 1h 26mn
Overall bit rate                 : 1 481 Kbps
Writing application              : Lavf52.22.1
Writing library                  : VirtualDub build 32842/release

Video
ID                               : 0
Format                           : MPEG-4 Visual
Format profile                   : Simple@L1
Format settings, BVOP            : No
Format settings, QPel            : No
Format settings, GMC             : No warppoints
Format settings, Matrix          : Default (H.263)
Codec ID                         : XVID
Codec ID/Hint                    : XviD
Duration                         : 1h 26mn
Bit rate                         : 1 341 Kbps
Width                            : 640 pixels
Height                           : 356 pixels
Display aspect ratio             : 16:9
Frame rate                       : 25.000 fps
Color space                      : YUV
Chroma subsampling               : 4:2:0
Bit depth                        : 8 bits
Scan type                        : Progressive
Compression mode                 : Lossy
Bits/(Pixel*Frame)               : 0.235
Stream size                      : 827 MiB (91%)
Writing library                  : Lavc52.0.0

Audio
ID                               : 1
Format                           : MPEG Audio
Format version                   : Version 1
Format profile                   : Layer 3
Codec ID                         : 55
Codec ID/Hint                    : MP3
Duration                         : 1h 26mn
Bit rate mode                    : Constant
Bit rate                         : 128 Kbps
Channel(s)                       : 2 channels
Sampling rate                    : 44.1 KHz
Compression mode                 : Lossy
Stream size                      : 78.9 MiB (9%)
Alignment                        : Aligned on interleaves
Interleave, duration             : 26 ms (0.65 video frame)
Interleave, preload duration     : 522 ms


Screenshots:
[img]http://leetleech.org/images/30676951870644438542.png[/img]
[img]http://leetleech.org/images/31039110755688357504.png[/img]
[img]http://leetleech.org/images/22983895089916643544.png[/img]
[img]http://leetleech.org/images/59561165348829585699.png[/img]
[img]http://leetleech.org/images/03723147757315979655.png[/img]
[img]http://leetleech.org/images/59257683516230834693.png[/img]
[img]http://leetleech.org/images/21937492082933279930.png[/img]

Note:
We noticed some feedback from folks who were having trouble with the last
release playing in standalone players due to the resolution of the video.
This was our first attempt at capturing such a source, so our bad. It's a
learning process though, so it can only get better from here. So enjoy this
Version 2 of Quarantine 2, that has been tested on a Phillips standalone
player, and seems to be functioning properly. 

Encoder: thefuzz
Enjoy!

Respects to CaptainHomey, Cyanide, CM8, Rx, Pirate666, THC, ELEKTRI4KA,
Killerhz, XtremE, PA, YeFsTe, Empire and everyone in the struggle...